<svg xmlns="http://www.w3.org/2000/svg" version="1.1" xmlns:xlink="http://www.w3.org/1999/xlink" xmlns:svgjs="http://svgjs.dev/svgjs" width="200" height="200" preserveAspectRatio="none" viewBox="0 0 200 200"><g mask="url(&quot;#SvgjsMask1488&quot;)" fill="none"><rect width="200" height="200" x="0" y="0" fill="#0e2a47"></rect><path d="M33.56 11.27L50.88 21.27L50.88 41.27L33.56 51.27L16.24 41.27L16.24 21.27zM50.88 41.27L68.2 51.27L68.2 71.27L50.88 81.27L33.56 71.27L33.56 51.27zM68.2 71.27L85.52 81.27L85.52 101.27L68.2 111.27L50.88 101.27L50.88 81.27zM50.88 161.27L68.2 171.27L68.2 191.27L50.88 201.27L33.56 191.27L33.56 171.27zM68.2 191.27L85.52 201.27L85.52 221.27L68.2 231.27L50.88 221.27L50.88 201.27zM85.52 -18.73L102.84 -8.73L102.84 11.27L85.52 21.27L68.2 11.27L68.2 -8.73zM85.52 41.27L102.84 51.27L102.84 71.27L85.52 81.27L68.2 71.27L68.2 51.27zM85.52 101.27L102.84 111.27L102.84 131.27L85.52 141.27L68.2 131.27L68.2 111.27zM137.49 131.27L154.81 141.27L154.81 161.27L137.49 171.27L120.17 161.27L120.17 141.27zM137.49 191.27L154.81 201.27L154.81 221.27L137.49 231.27L120.17 221.27L120.17 201.27zM154.81 101.27L172.13 111.27L172.13 131.27L154.81 141.27L137.49 131.27L137.49 111.27zM154.81 161.27L172.13 171.27L172.13 191.27L154.81 201.27L137.49 191.27L137.49 171.27zM189.45 -18.73L206.77 -8.73L206.77 11.27L189.45 21.27L172.13 11.27L172.13 -8.73zM206.77 11.27L224.09 21.27L224.09 41.27L206.77 51.27L189.45 41.27L189.45 21.27z" stroke="rgba(3, 48, 93, 1)" stroke-width="2"></path><path d="M30.56 11.27 a3 3 0 1 0 6 0 a3 3 0 1 0 -6 0zM47.88 21.27 a3 3 0 1 0 6 0 a3 3 0 1 0 -6 0zM47.88 41.27 a3 3 0 1 0 6 0 a3 3 0 1 0 -6 0zM30.56 51.27 a3 3 0 1 0 6 0 a3 3 0 1 0 -6 0zM13.24 41.27 a3 3 0 1 0 6 0 a3 3 0 1 0 -6 0zM13.24 21.27 a3 3 0 1 0 6 0 a3 3 0 1 0 -6 0zM65.2 51.27 a3 3 0 1 0 6 0 a3 3 0 1 0 -6 0zM65.2 71.27 a3 3 0 1 0 6 0 a3 3 0 1 0 -6 0zM47.88 81.27 a3 3 0 1 0 6 0 a3 3 0 1 0 -6 0zM30.56 71.27 a3 3 0 1 0 6 0 a3 3 0 1 0 -6 0zM82.52 81.27 a3 3 0 1 0 6 0 a3 3 0 1 0 -6 0zM82.52 101.27 a3 3 0 1 0 6 0 a3 3 0 1 0 -6 0zM65.2 111.27 a3 3 0 1 0 6 0 a3 3 0 1 0 -6 0zM47.88 101.27 a3 3 0 1 0 6 0 a3 3 0 1 0 -6 0zM47.88 161.27 a3 3 0 1 0 6 0 a3 3 0 1 0 -6 0zM65.2 171.27 a3 3 0 1 0 6 0 a3 3 0 1 0 -6 0zM65.2 191.27 a3 3 0 1 0 6 0 a3 3 0 1 0 -6 0zM47.88 201.27 a3 3 0 1 0 6 0 a3 3 0 1 0 -6 0zM30.56 191.27 a3 3 0 1 0 6 0 a3 3 0 1 0 -6 0zM30.56 171.27 a3 3 0 1 0 6 0 a3 3 0 1 0 -6 0zM82.52 201.27 a3 3 0 1 0 6 0 a3 3 0 1 0 -6 0zM82.52 221.27 a3 3 0 1 0 6 0 a3 3 0 1 0 -6 0zM65.2 231.27 a3 3 0 1 0 6 0 a3 3 0 1 0 -6 0zM47.88 221.27 a3 3 0 1 0 6 0 a3 3 0 1 0 -6 0zM82.52 -18.73 a3 3 0 1 0 6 0 a3 3 0 1 0 -6 0zM99.84 -8.73 a3 3 0 1 0 6 0 a3 3 0 1 0 -6 0zM99.84 11.27 a3 3 0 1 0 6 0 a3 3 0 1 0 -6 0zM82.52 21.27 a3 3 0 1 0 6 0 a3 3 0 1 0 -6 0zM65.2 11.27 a3 3 0 1 0 6 0 a3 3 0 1 0 -6 0zM65.2 -8.73 a3 3 0 1 0 6 0 a3 3 0 1 0 -6 0zM82.52 41.27 a3 3 0 1 0 6 0 a3 3 0 1 0 -6 0zM99.84 51.27 a3 3 0 1 0 6 0 a3 3 0 1 0 -6 0zM99.84 71.27 a3 3 0 1 0 6 0 a3 3 0 1 0 -6 0zM99.84 111.27 a3 3 0 1 0 6 0 a3 3 0 1 0 -6 0zM99.84 131.27 a3 3 0 1 0 6 0 a3 3 0 1 0 -6 0zM82.52 141.27 a3 3 0 1 0 6 0 a3 3 0 1 0 -6 0zM65.2 131.27 a3 3 0 1 0 6 0 a3 3 0 1 0 -6 0zM134.49 131.27 a3 3 0 1 0 6 0 a3 3 0 1 0 -6 0zM151.81 141.27 a3 3 0 1 0 6 0 a3 3 0 1 0 -6 0zM151.81 161.27 a3 3 0 1 0 6 0 a3 3 0 1 0 -6 0zM134.49 171.27 a3 3 0 1 0 6 0 a3 3 0 1 0 -6 0zM117.17 161.27 a3 3 0 1 0 6 0 a3 3 0 1 0 -6 0zM117.17 141.27 a3 3 0 1 0 6 0 a3 3 0 1 0 -6 0zM134.49 191.27 a3 3 0 1 0 6 0 a3 3 0 1 0 -6 0zM151.81 201.27 a3 3 0 1 0 6 0 a3 3 0 1 0 -6 0zM151.81 221.27 a3 3 0 1 0 6 0 a3 3 0 1 0 -6 0zM134.49 231.27 a3 3 0 1 0 6 0 a3 3 0 1 0 -6 0zM117.17 221.27 a3 3 0 1 0 6 0 a3 3 0 1 0 -6 0zM117.17 201.27 a3 3 0 1 0 6 0 a3 3 0 1 0 -6 0zM151.81 101.27 a3 3 0 1 0 6 0 a3 3 0 1 0 -6 0zM169.13 111.27 a3 3 0 1 0 6 0 a3 3 0 1 0 -6 0zM169.13 131.27 a3 3 0 1 0 6 0 a3 3 0 1 0 -6 0zM134.49 111.27 a3 3 0 1 0 6 0 a3 3 0 1 0 -6 0zM169.13 171.27 a3 3 0 1 0 6 0 a3 3 0 1 0 -6 0zM169.13 191.27 a3 3 0 1 0 6 0 a3 3 0 1 0 -6 0zM186.45 -18.73 a3 3 0 1 0 6 0 a3 3 0 1 0 -6 0zM203.77 -8.73 a3 3 0 1 0 6 0 a3 3 0 1 0 -6 0zM203.77 11.27 a3 3 0 1 0 6 0 a3 3 0 1 0 -6 0zM186.45 21.27 a3 3 0 1 0 6 0 a3 3 0 1 0 -6 0zM169.13 11.27 a3 3 0 1 0 6 0 a3 3 0 1 0 -6 0zM169.13 -8.73 a3 3 0 1 0 6 0 a3 3 0 1 0 -6 0zM221.09 21.27 a3 3 0 1 0 6 0 a3 3 0 1 0 -6 0zM221.09 41.27 a3 3 0 1 0 6 0 a3 3 0 1 0 -6 0zM203.77 51.27 a3 3 0 1 0 6 0 a3 3 0 1 0 -6 0zM186.45 41.27 a3 3 0 1 0 6 0 a3 3 0 1 0 -6 0z" fill="rgba(3, 48, 93, 1)"></path><path d="M20.44 10.59L38.62 21.09L38.62 42.09L20.44 52.59L2.25 42.09L2.25 21.09zM20.44 73.59L38.62 84.09L38.62 105.09L20.44 115.59L2.25 105.09L2.25 84.09zM2.25 105.09L20.44 115.59L20.44 136.59L2.25 147.09L-15.94 136.59L-15.94 115.59zM38.62 -20.91L56.81 -10.41L56.81 10.59L38.62 21.09L20.44 10.59L20.44 -10.41zM38.62 105.09L56.81 115.59L56.81 136.59L38.62 147.09L20.44 136.59L20.44 115.59zM56.81 136.59L75 147.09L75 168.09L56.81 178.59L38.62 168.09L38.62 147.09zM75 -20.91L93.19 -10.41L93.19 10.59L75 21.09L56.81 10.59L56.81 -10.41zM93.19 10.59L111.37 21.09L111.37 42.09L93.19 52.59L75 42.09L75 21.09zM93.19 73.59L111.37 84.09L111.37 105.09L93.19 115.59L75 105.09L75 84.09zM111.37 -20.91L129.56 -10.41L129.56 10.59L111.37 21.09L93.19 10.59L93.19 -10.41zM111.37 42.09L129.56 52.59L129.56 73.59L111.37 84.09L93.19 73.59L93.19 52.59zM129.56 73.59L147.75 84.09L147.75 105.09L129.56 115.59L111.37 105.09L111.37 84.09zM147.75 -20.91L165.93 -10.41L165.93 10.59L147.75 21.09L129.56 10.59L129.56 -10.41zM165.93 73.59L184.12 84.09L184.12 105.09L165.93 115.59L147.75 105.09L147.75 84.09zM165.93 136.59L184.12 147.09L184.12 168.09L165.93 178.59L147.75 168.09L147.75 147.09z" stroke="#03305d" stroke-width="2"></path><path d="M17.44 10.59 a3 3 0 1 0 6 0 a3 3 0 1 0 -6 0zM35.62 21.09 a3 3 0 1 0 6 0 a3 3 0 1 0 -6 0zM35.62 42.09 a3 3 0 1 0 6 0 a3 3 0 1 0 -6 0zM17.44 52.59 a3 3 0 1 0 6 0 a3 3 0 1 0 -6 0zM-0.75 42.09 a3 3 0 1 0 6 0 a3 3 0 1 0 -6 0zM-0.75 21.09 a3 3 0 1 0 6 0 a3 3 0 1 0 -6 0zM17.44 73.59 a3 3 0 1 0 6 0 a3 3 0 1 0 -6 0zM35.62 84.09 a3 3 0 1 0 6 0 a3 3 0 1 0 -6 0zM35.62 105.09 a3 3 0 1 0 6 0 a3 3 0 1 0 -6 0zM17.44 115.59 a3 3 0 1 0 6 0 a3 3 0 1 0 -6 0zM-0.75 105.09 a3 3 0 1 0 6 0 a3 3 0 1 0 -6 0zM-0.75 84.09 a3 3 0 1 0 6 0 a3 3 0 1 0 -6 0zM17.44 136.59 a3 3 0 1 0 6 0 a3 3 0 1 0 -6 0zM-0.75 147.09 a3 3 0 1 0 6 0 a3 3 0 1 0 -6 0zM-18.94 136.59 a3 3 0 1 0 6 0 a3 3 0 1 0 -6 0zM-18.94 115.59 a3 3 0 1 0 6 0 a3 3 0 1 0 -6 0zM35.62 -20.91 a3 3 0 1 0 6 0 a3 3 0 1 0 -6 0zM53.81 -10.41 a3 3 0 1 0 6 0 a3 3 0 1 0 -6 0zM53.81 10.59 a3 3 0 1 0 6 0 a3 3 0 1 0 -6 0zM17.44 -10.41 a3 3 0 1 0 6 0 a3 3 0 1 0 -6 0zM53.81 115.59 a3 3 0 1 0 6 0 a3 3 0 1 0 -6 0zM53.81 136.59 a3 3 0 1 0 6 0 a3 3 0 1 0 -6 0zM35.62 147.09 a3 3 0 1 0 6 0 a3 3 0 1 0 -6 0zM72 147.09 a3 3 0 1 0 6 0 a3 3 0 1 0 -6 0zM72 168.09 a3 3 0 1 0 6 0 a3 3 0 1 0 -6 0zM53.81 178.59 a3 3 0 1 0 6 0 a3 3 0 1 0 -6 0zM35.62 168.09 a3 3 0 1 0 6 0 a3 3 0 1 0 -6 0zM72 -20.91 a3 3 0 1 0 6 0 a3 3 0 1 0 -6 0zM90.19 -10.41 a3 3 0 1 0 6 0 a3 3 0 1 0 -6 0zM90.19 10.59 a3 3 0 1 0 6 0 a3 3 0 1 0 -6 0zM72 21.09 a3 3 0 1 0 6 0 a3 3 0 1 0 -6 0zM108.37 21.09 a3 3 0 1 0 6 0 a3 3 0 1 0 -6 0zM108.37 42.09 a3 3 0 1 0 6 0 a3 3 0 1 0 -6 0zM90.19 52.59 a3 3 0 1 0 6 0 a3 3 0 1 0 -6 0zM72 42.09 a3 3 0 1 0 6 0 a3 3 0 1 0 -6 0zM90.19 73.59 a3 3 0 1 0 6 0 a3 3 0 1 0 -6 0zM108.37 84.09 a3 3 0 1 0 6 0 a3 3 0 1 0 -6 0zM108.37 105.09 a3 3 0 1 0 6 0 a3 3 0 1 0 -6 0zM90.19 115.59 a3 3 0 1 0 6 0 a3 3 0 1 0 -6 0zM72 105.09 a3 3 0 1 0 6 0 a3 3 0 1 0 -6 0zM72 84.09 a3 3 0 1 0 6 0 a3 3 0 1 0 -6 0zM108.37 -20.91 a3 3 0 1 0 6 0 a3 3 0 1 0 -6 0zM126.56 -10.41 a3 3 0 1 0 6 0 a3 3 0 1 0 -6 0zM126.56 10.59 a3 3 0 1 0 6 0 a3 3 0 1 0 -6 0zM126.56 52.59 a3 3 0 1 0 6 0 a3 3 0 1 0 -6 0zM126.56 73.59 a3 3 0 1 0 6 0 a3 3 0 1 0 -6 0zM144.75 84.09 a3 3 0 1 0 6 0 a3 3 0 1 0 -6 0zM144.75 105.09 a3 3 0 1 0 6 0 a3 3 0 1 0 -6 0zM126.56 115.59 a3 3 0 1 0 6 0 a3 3 0 1 0 -6 0zM144.75 -20.91 a3 3 0 1 0 6 0 a3 3 0 1 0 -6 0zM162.93 -10.41 a3 3 0 1 0 6 0 a3 3 0 1 0 -6 0zM162.93 10.59 a3 3 0 1 0 6 0 a3 3 0 1 0 -6 0zM144.75 21.09 a3 3 0 1 0 6 0 a3 3 0 1 0 -6 0zM162.93 73.59 a3 3 0 1 0 6 0 a3 3 0 1 0 -6 0zM181.12 84.09 a3 3 0 1 0 6 0 a3 3 0 1 0 -6 0zM181.12 105.09 a3 3 0 1 0 6 0 a3 3 0 1 0 -6 0zM162.93 115.59 a3 3 0 1 0 6 0 a3 3 0 1 0 -6 0zM162.93 136.59 a3 3 0 1 0 6 0 a3 3 0 1 0 -6 0zM181.12 147.09 a3 3 0 1 0 6 0 a3 3 0 1 0 -6 0zM181.12 168.09 a3 3 0 1 0 6 0 a3 3 0 1 0 -6 0zM162.93 178.59 a3 3 0 1 0 6 0 a3 3 0 1 0 -6 0zM144.75 168.09 a3 3 0 1 0 6 0 a3 3 0 1 0 -6 0zM144.75 147.09 a3 3 0 1 0 6 0 a3 3 0 1 0 -6 0z" fill="#03305d"></path><path d="M26.07 68.78L50.32 82.78L50.32 110.78L26.07 124.78L1.82 110.78L1.82 82.78zM50.32 110.78L74.57 124.78L74.57 152.78L50.32 166.78L26.07 152.78L26.07 124.78zM26.07 152.78L50.32 166.78L50.32 194.78L26.07 208.78L1.82 194.78L1.82 166.78zM50.32 194.78L74.57 208.78L74.57 236.78L50.32 250.78L26.07 236.78L26.07 208.78zM74.57 -15.22L98.82 -1.22L98.82 26.78L74.57 40.78L50.32 26.78L50.32 -1.22zM74.57 152.78L98.82 166.78L98.82 194.78L74.57 208.78L50.32 194.78L50.32 166.78zM123.07 -15.22L147.32 -1.22L147.32 26.78L123.07 40.78L98.82 26.78L98.82 -1.22zM123.07 68.78L147.32 82.78L147.32 110.78L123.07 124.78L98.82 110.78L98.82 82.78zM195.82 26.78L220.07 40.78L220.07 68.78L195.82 82.78L171.57 68.78L171.57 40.78zM195.82 110.78L220.07 124.78L220.07 152.78L195.82 166.78L171.57 152.78L171.57 124.78zM171.57 152.78L195.82 166.78L195.82 194.78L171.57 208.78L147.32 194.78L147.32 166.78zM244.31 26.78L268.56 40.78L268.56 68.78L244.31 82.78L220.07 68.78L220.07 40.78zM220.07 68.78L244.31 82.78L244.31 110.78L220.07 124.78L195.82 110.78L195.82 82.78zM220.07 152.78L244.31 166.78L244.31 194.78L220.07 208.78L195.82 194.78L195.82 166.78zM244.31 194.78L268.56 208.78L268.56 236.78L244.31 250.78L220.07 236.78L220.07 208.78z" stroke="rgba(6, 80, 156, 0.93)" stroke-width="2"></path></g><defs><mask id="SvgjsMask1488"><rect width="200" height="200" fill="#ffffff"></rect></mask></defs></svg>