<svg xmlns="http://www.w3.org/2000/svg" version="1.1" xmlns:xlink="http://www.w3.org/1999/xlink" xmlns:svgjs="http://svgjs.dev/svgjs" width="200" height="200" preserveAspectRatio="none" viewBox="0 0 200 200"><g mask="url(&quot;#SvgjsMask1216&quot;)" fill="none"><rect width="200" height="200" x="0" y="0" fill="rgba(25, 52, 74, 1)"></rect><path d="M13.47 106.05L30.79 116.05L30.79 136.05L13.47 146.05L-3.85 136.05L-3.85 116.05zM30.79 136.05L48.11 146.05L48.11 166.05L30.79 176.05L13.47 166.05L13.47 146.05zM48.11 -13.95L65.43 -3.95L65.43 16.05L48.11 26.05L30.79 16.05L30.79 -3.95zM48.11 46.05L65.43 56.05L65.43 76.05L48.11 86.05L30.79 76.05L30.79 56.05zM48.11 166.05L65.43 176.05L65.43 196.05L48.11 206.05L30.79 196.05L30.79 176.05zM65.43 196.05L82.75 206.05L82.75 226.05L65.43 236.05L48.11 226.05L48.11 206.05zM100.07 16.05L117.4 26.05L117.4 46.05L100.07 56.05L82.75 46.05L82.75 26.05zM117.4 166.05L134.72 176.05L134.72 196.05L117.4 206.05L100.07 196.05L100.07 176.05zM152.04 -13.95L169.36 -3.95L169.36 16.05L152.04 26.05L134.72 16.05L134.72 -3.95zM186.68 46.05L204 56.05L204 76.05L186.68 86.05L169.36 76.05L169.36 56.05zM204 76.05L221.32 86.05L221.32 106.05L204 116.05L186.68 106.05L186.68 86.05zM186.68 166.05L204 176.05L204 196.05L186.68 206.05L169.36 196.05L169.36 176.05z" stroke="rgba(77, 91, 206, 0.28)" stroke-width="2"></path><path d="M10.47 106.05 a3 3 0 1 0 6 0 a3 3 0 1 0 -6 0zM27.79 116.05 a3 3 0 1 0 6 0 a3 3 0 1 0 -6 0zM27.79 136.05 a3 3 0 1 0 6 0 a3 3 0 1 0 -6 0zM10.47 146.05 a3 3 0 1 0 6 0 a3 3 0 1 0 -6 0zM-6.85 136.05 a3 3 0 1 0 6 0 a3 3 0 1 0 -6 0zM-6.85 116.05 a3 3 0 1 0 6 0 a3 3 0 1 0 -6 0zM45.11 146.05 a3 3 0 1 0 6 0 a3 3 0 1 0 -6 0zM45.11 166.05 a3 3 0 1 0 6 0 a3 3 0 1 0 -6 0zM27.79 176.05 a3 3 0 1 0 6 0 a3 3 0 1 0 -6 0zM10.47 166.05 a3 3 0 1 0 6 0 a3 3 0 1 0 -6 0zM45.11 -13.95 a3 3 0 1 0 6 0 a3 3 0 1 0 -6 0zM62.43 -3.95 a3 3 0 1 0 6 0 a3 3 0 1 0 -6 0zM62.43 16.05 a3 3 0 1 0 6 0 a3 3 0 1 0 -6 0zM45.11 26.05 a3 3 0 1 0 6 0 a3 3 0 1 0 -6 0zM27.79 16.05 a3 3 0 1 0 6 0 a3 3 0 1 0 -6 0zM27.79 -3.95 a3 3 0 1 0 6 0 a3 3 0 1 0 -6 0zM45.11 46.05 a3 3 0 1 0 6 0 a3 3 0 1 0 -6 0zM62.43 56.05 a3 3 0 1 0 6 0 a3 3 0 1 0 -6 0zM62.43 76.05 a3 3 0 1 0 6 0 a3 3 0 1 0 -6 0zM45.11 86.05 a3 3 0 1 0 6 0 a3 3 0 1 0 -6 0zM27.79 76.05 a3 3 0 1 0 6 0 a3 3 0 1 0 -6 0zM27.79 56.05 a3 3 0 1 0 6 0 a3 3 0 1 0 -6 0zM62.43 176.05 a3 3 0 1 0 6 0 a3 3 0 1 0 -6 0zM62.43 196.05 a3 3 0 1 0 6 0 a3 3 0 1 0 -6 0zM45.11 206.05 a3 3 0 1 0 6 0 a3 3 0 1 0 -6 0zM27.79 196.05 a3 3 0 1 0 6 0 a3 3 0 1 0 -6 0zM79.75 206.05 a3 3 0 1 0 6 0 a3 3 0 1 0 -6 0zM79.75 226.05 a3 3 0 1 0 6 0 a3 3 0 1 0 -6 0zM62.43 236.05 a3 3 0 1 0 6 0 a3 3 0 1 0 -6 0zM45.11 226.05 a3 3 0 1 0 6 0 a3 3 0 1 0 -6 0zM97.07 16.05 a3 3 0 1 0 6 0 a3 3 0 1 0 -6 0zM114.4 26.05 a3 3 0 1 0 6 0 a3 3 0 1 0 -6 0zM114.4 46.05 a3 3 0 1 0 6 0 a3 3 0 1 0 -6 0zM97.07 56.05 a3 3 0 1 0 6 0 a3 3 0 1 0 -6 0zM79.75 46.05 a3 3 0 1 0 6 0 a3 3 0 1 0 -6 0zM79.75 26.05 a3 3 0 1 0 6 0 a3 3 0 1 0 -6 0zM114.4 166.05 a3 3 0 1 0 6 0 a3 3 0 1 0 -6 0zM131.72 176.05 a3 3 0 1 0 6 0 a3 3 0 1 0 -6 0zM131.72 196.05 a3 3 0 1 0 6 0 a3 3 0 1 0 -6 0zM114.4 206.05 a3 3 0 1 0 6 0 a3 3 0 1 0 -6 0zM97.07 196.05 a3 3 0 1 0 6 0 a3 3 0 1 0 -6 0zM97.07 176.05 a3 3 0 1 0 6 0 a3 3 0 1 0 -6 0zM149.04 -13.95 a3 3 0 1 0 6 0 a3 3 0 1 0 -6 0zM166.36 -3.95 a3 3 0 1 0 6 0 a3 3 0 1 0 -6 0zM166.36 16.05 a3 3 0 1 0 6 0 a3 3 0 1 0 -6 0zM149.04 26.05 a3 3 0 1 0 6 0 a3 3 0 1 0 -6 0zM131.72 16.05 a3 3 0 1 0 6 0 a3 3 0 1 0 -6 0zM131.72 -3.95 a3 3 0 1 0 6 0 a3 3 0 1 0 -6 0zM183.68 46.05 a3 3 0 1 0 6 0 a3 3 0 1 0 -6 0zM201 56.05 a3 3 0 1 0 6 0 a3 3 0 1 0 -6 0zM201 76.05 a3 3 0 1 0 6 0 a3 3 0 1 0 -6 0zM183.68 86.05 a3 3 0 1 0 6 0 a3 3 0 1 0 -6 0zM166.36 76.05 a3 3 0 1 0 6 0 a3 3 0 1 0 -6 0zM166.36 56.05 a3 3 0 1 0 6 0 a3 3 0 1 0 -6 0zM218.32 86.05 a3 3 0 1 0 6 0 a3 3 0 1 0 -6 0zM218.32 106.05 a3 3 0 1 0 6 0 a3 3 0 1 0 -6 0zM201 116.05 a3 3 0 1 0 6 0 a3 3 0 1 0 -6 0zM183.68 106.05 a3 3 0 1 0 6 0 a3 3 0 1 0 -6 0zM183.68 166.05 a3 3 0 1 0 6 0 a3 3 0 1 0 -6 0zM201 176.05 a3 3 0 1 0 6 0 a3 3 0 1 0 -6 0zM201 196.05 a3 3 0 1 0 6 0 a3 3 0 1 0 -6 0zM183.68 206.05 a3 3 0 1 0 6 0 a3 3 0 1 0 -6 0zM166.36 196.05 a3 3 0 1 0 6 0 a3 3 0 1 0 -6 0zM166.36 176.05 a3 3 0 1 0 6 0 a3 3 0 1 0 -6 0z" fill="rgba(77, 91, 206, 0.28)"></path><path d="M28.63 -12.12L54.61 2.88L54.61 32.88L28.63 47.88L2.65 32.88L2.65 2.88zM28.63 77.88L54.61 92.88L54.61 122.88L28.63 137.88L2.65 122.88L2.65 92.88zM28.63 167.88L54.61 182.88L54.61 212.88L28.63 227.88L2.65 212.88L2.65 182.88zM106.57 32.88L132.56 47.88L132.56 77.88L106.57 92.88L80.59 77.88L80.59 47.88zM158.54 122.88L184.52 137.88L184.52 167.88L158.54 182.88L132.56 167.88L132.56 137.88zM132.56 167.88L158.54 182.88L158.54 212.88L132.56 227.88L106.57 212.88L106.57 182.88zM210.5 32.88L236.48 47.88L236.48 77.88L210.5 92.88L184.52 77.88L184.52 47.88zM184.52 77.88L210.5 92.88L210.5 122.88L184.52 137.88L158.54 122.88L158.54 92.88z" stroke="rgba(60, 157, 147, 0.72)" stroke-width="2"></path><path d="M25.63 -12.12 a3 3 0 1 0 6 0 a3 3 0 1 0 -6 0zM51.61 2.88 a3 3 0 1 0 6 0 a3 3 0 1 0 -6 0zM51.61 32.88 a3 3 0 1 0 6 0 a3 3 0 1 0 -6 0zM25.63 47.88 a3 3 0 1 0 6 0 a3 3 0 1 0 -6 0zM-0.35 32.88 a3 3 0 1 0 6 0 a3 3 0 1 0 -6 0zM-0.35 2.88 a3 3 0 1 0 6 0 a3 3 0 1 0 -6 0zM25.63 77.88 a3 3 0 1 0 6 0 a3 3 0 1 0 -6 0zM51.61 92.88 a3 3 0 1 0 6 0 a3 3 0 1 0 -6 0zM51.61 122.88 a3 3 0 1 0 6 0 a3 3 0 1 0 -6 0zM25.63 137.88 a3 3 0 1 0 6 0 a3 3 0 1 0 -6 0zM-0.35 122.88 a3 3 0 1 0 6 0 a3 3 0 1 0 -6 0zM-0.35 92.88 a3 3 0 1 0 6 0 a3 3 0 1 0 -6 0zM25.63 167.88 a3 3 0 1 0 6 0 a3 3 0 1 0 -6 0zM51.61 182.88 a3 3 0 1 0 6 0 a3 3 0 1 0 -6 0zM51.61 212.88 a3 3 0 1 0 6 0 a3 3 0 1 0 -6 0zM25.63 227.88 a3 3 0 1 0 6 0 a3 3 0 1 0 -6 0zM-0.35 212.88 a3 3 0 1 0 6 0 a3 3 0 1 0 -6 0zM-0.35 182.88 a3 3 0 1 0 6 0 a3 3 0 1 0 -6 0zM103.57 32.88 a3 3 0 1 0 6 0 a3 3 0 1 0 -6 0zM129.56 47.88 a3 3 0 1 0 6 0 a3 3 0 1 0 -6 0zM129.56 77.88 a3 3 0 1 0 6 0 a3 3 0 1 0 -6 0zM103.57 92.88 a3 3 0 1 0 6 0 a3 3 0 1 0 -6 0zM77.59 77.88 a3 3 0 1 0 6 0 a3 3 0 1 0 -6 0zM77.59 47.88 a3 3 0 1 0 6 0 a3 3 0 1 0 -6 0zM155.54 122.88 a3 3 0 1 0 6 0 a3 3 0 1 0 -6 0zM181.52 137.88 a3 3 0 1 0 6 0 a3 3 0 1 0 -6 0zM181.52 167.88 a3 3 0 1 0 6 0 a3 3 0 1 0 -6 0zM155.54 182.88 a3 3 0 1 0 6 0 a3 3 0 1 0 -6 0zM129.56 167.88 a3 3 0 1 0 6 0 a3 3 0 1 0 -6 0zM129.56 137.88 a3 3 0 1 0 6 0 a3 3 0 1 0 -6 0zM155.54 212.88 a3 3 0 1 0 6 0 a3 3 0 1 0 -6 0zM129.56 227.88 a3 3 0 1 0 6 0 a3 3 0 1 0 -6 0zM103.57 212.88 a3 3 0 1 0 6 0 a3 3 0 1 0 -6 0zM103.57 182.88 a3 3 0 1 0 6 0 a3 3 0 1 0 -6 0zM207.5 32.88 a3 3 0 1 0 6 0 a3 3 0 1 0 -6 0zM233.48 47.88 a3 3 0 1 0 6 0 a3 3 0 1 0 -6 0zM233.48 77.88 a3 3 0 1 0 6 0 a3 3 0 1 0 -6 0zM207.5 92.88 a3 3 0 1 0 6 0 a3 3 0 1 0 -6 0zM181.52 77.88 a3 3 0 1 0 6 0 a3 3 0 1 0 -6 0zM181.52 47.88 a3 3 0 1 0 6 0 a3 3 0 1 0 -6 0zM207.5 122.88 a3 3 0 1 0 6 0 a3 3 0 1 0 -6 0zM155.54 92.88 a3 3 0 1 0 6 0 a3 3 0 1 0 -6 0z" fill="rgba(60, 157, 147, 0.72)"></path><path d="M28.84 15.01L46.16 25.01L46.16 45.01L28.84 55.01L11.52 45.01L11.52 25.01zM11.52 165.01L28.84 175.01L28.84 195.01L11.52 205.01L-5.8 195.01L-5.8 175.01zM80.8 105.01L98.12 115.01L98.12 135.01L80.8 145.01L63.48 135.01L63.48 115.01zM150.09 -14.99L167.41 -4.99L167.41 15.01L150.09 25.01L132.77 15.01L132.77 -4.99zM150.09 45.01L167.41 55.01L167.41 75.01L150.09 85.01L132.77 75.01L132.77 55.01zM167.41 135.01L184.73 145.01L184.73 165.01L167.41 175.01L150.09 165.01L150.09 145.01zM150.09 165.01L167.41 175.01L167.41 195.01L150.09 205.01L132.77 195.01L132.77 175.01zM184.73 165.01L202.05 175.01L202.05 195.01L184.73 205.01L167.41 195.01L167.41 175.01z" stroke="rgba(0, 69, 158, 0.22)" stroke-width="2"></path><path d="M25.84 15.01 a3 3 0 1 0 6 0 a3 3 0 1 0 -6 0zM43.16 25.01 a3 3 0 1 0 6 0 a3 3 0 1 0 -6 0zM43.16 45.01 a3 3 0 1 0 6 0 a3 3 0 1 0 -6 0zM25.84 55.01 a3 3 0 1 0 6 0 a3 3 0 1 0 -6 0zM8.52 45.01 a3 3 0 1 0 6 0 a3 3 0 1 0 -6 0zM8.52 25.01 a3 3 0 1 0 6 0 a3 3 0 1 0 -6 0zM8.52 165.01 a3 3 0 1 0 6 0 a3 3 0 1 0 -6 0zM25.84 175.01 a3 3 0 1 0 6 0 a3 3 0 1 0 -6 0zM25.84 195.01 a3 3 0 1 0 6 0 a3 3 0 1 0 -6 0zM8.52 205.01 a3 3 0 1 0 6 0 a3 3 0 1 0 -6 0zM-8.8 195.01 a3 3 0 1 0 6 0 a3 3 0 1 0 -6 0zM-8.8 175.01 a3 3 0 1 0 6 0 a3 3 0 1 0 -6 0zM77.8 105.01 a3 3 0 1 0 6 0 a3 3 0 1 0 -6 0zM95.12 115.01 a3 3 0 1 0 6 0 a3 3 0 1 0 -6 0zM95.12 135.01 a3 3 0 1 0 6 0 a3 3 0 1 0 -6 0zM77.8 145.01 a3 3 0 1 0 6 0 a3 3 0 1 0 -6 0zM60.48 135.01 a3 3 0 1 0 6 0 a3 3 0 1 0 -6 0zM60.48 115.01 a3 3 0 1 0 6 0 a3 3 0 1 0 -6 0zM147.09 -14.99 a3 3 0 1 0 6 0 a3 3 0 1 0 -6 0zM164.41 -4.99 a3 3 0 1 0 6 0 a3 3 0 1 0 -6 0zM164.41 15.01 a3 3 0 1 0 6 0 a3 3 0 1 0 -6 0zM147.09 25.01 a3 3 0 1 0 6 0 a3 3 0 1 0 -6 0zM129.77 15.01 a3 3 0 1 0 6 0 a3 3 0 1 0 -6 0zM129.77 -4.99 a3 3 0 1 0 6 0 a3 3 0 1 0 -6 0zM147.09 45.01 a3 3 0 1 0 6 0 a3 3 0 1 0 -6 0zM164.41 55.01 a3 3 0 1 0 6 0 a3 3 0 1 0 -6 0zM164.41 75.01 a3 3 0 1 0 6 0 a3 3 0 1 0 -6 0zM147.09 85.01 a3 3 0 1 0 6 0 a3 3 0 1 0 -6 0zM129.77 75.01 a3 3 0 1 0 6 0 a3 3 0 1 0 -6 0zM129.77 55.01 a3 3 0 1 0 6 0 a3 3 0 1 0 -6 0zM164.41 135.01 a3 3 0 1 0 6 0 a3 3 0 1 0 -6 0zM181.73 145.01 a3 3 0 1 0 6 0 a3 3 0 1 0 -6 0zM181.73 165.01 a3 3 0 1 0 6 0 a3 3 0 1 0 -6 0zM164.41 175.01 a3 3 0 1 0 6 0 a3 3 0 1 0 -6 0zM147.09 165.01 a3 3 0 1 0 6 0 a3 3 0 1 0 -6 0zM147.09 145.01 a3 3 0 1 0 6 0 a3 3 0 1 0 -6 0zM164.41 195.01 a3 3 0 1 0 6 0 a3 3 0 1 0 -6 0zM147.09 205.01 a3 3 0 1 0 6 0 a3 3 0 1 0 -6 0zM129.77 195.01 a3 3 0 1 0 6 0 a3 3 0 1 0 -6 0zM129.77 175.01 a3 3 0 1 0 6 0 a3 3 0 1 0 -6 0zM199.05 175.01 a3 3 0 1 0 6 0 a3 3 0 1 0 -6 0zM199.05 195.01 a3 3 0 1 0 6 0 a3 3 0 1 0 -6 0zM181.73 205.01 a3 3 0 1 0 6 0 a3 3 0 1 0 -6 0z" fill="rgba(0, 69, 158, 0.22)"></path></g><defs><mask id="SvgjsMask1216"><rect width="200" height="200" fill="#ffffff"></rect></mask></defs></svg>